<?xml version="1.0" encoding="UTF-8" standalone="no"?>
<!DOCTYPE svg PUBLIC "-//W3C//DTD SVG 1.1//EN" "http://www.w3.org/Graphics/SVG/1.1/DTD/svg11.dtd">
<svg width="100%" height="100%" viewBox="0 0 297 297" version="1.1" xmlns="http://www.w3.org/2000/svg" xmlns:xlink="http://www.w3.org/1999/xlink" xml:space="preserve" xmlns:serif="http://www.serif.com/" style="fill-rule:evenodd;clip-rule:evenodd;stroke-linejoin:round;stroke-miterlimit:2;">
    <g>
        <path d="M295.838,115.347L295.841,115.346L295.749,114.586C295.748,114.573 295.747,114.563 295.745,114.55C295.744,114.539 295.743,114.529 295.741,114.518L295.397,111.66C295.328,111.086 295.249,110.432 295.159,109.686L295.087,109.092L294.94,109.11C291.323,88.539 281.387,69.017 265.998,52.348C250.681,35.759 230.781,22.661 208.45,14.47C189.317,7.452 169.016,3.893 148.113,3.893C119.893,3.893 92.486,10.53 68.856,23.086C23.289,47.297 -3.585,91.799 0.387,136.461C2.443,159.572 11.497,181.571 26.571,200.082C40.759,217.505 59.952,231.565 82.074,240.742C95.676,246.384 109.125,249.043 123.365,251.858L125.032,252.188C128.953,252.964 130.007,254.03 130.279,254.452C130.782,255.236 130.519,256.781 130.317,257.632C130.131,258.417 129.939,259.2 129.747,259.984C128.218,266.219 126.637,272.667 127.879,279.776C129.307,287.948 134.41,292.635 141.88,292.636L141.882,292.636C149.917,292.636 159.062,287.246 165.113,283.68L165.921,283.205C180.357,274.727 193.957,265.164 204.192,257.78C226.589,241.621 251.975,223.305 271.007,199.61C290.172,175.745 299.2,145.078 295.838,115.347ZM92.343,160.561L66.761,160.561C62.895,160.561 59.761,157.427 59.761,153.561L59.761,99.865C59.761,95.999 62.895,92.865 66.761,92.865C70.627,92.865 73.761,95.999 73.761,99.865L73.761,146.561L92.342,146.561C96.208,146.561 99.342,149.695 99.342,153.561C99.343,157.427 96.209,160.561 92.343,160.561ZM119.03,153.371C119.03,157.237 115.896,160.371 112.03,160.371C108.164,160.371 105.03,157.237 105.03,153.371L105.03,99.675C105.03,95.809 108.164,92.675 112.03,92.675C115.896,92.675 119.03,95.809 119.03,99.675L119.03,153.371ZM182.304,153.371C182.304,156.404 180.351,159.092 177.466,160.029C176.754,160.26 176.025,160.372 175.305,160.372C173.106,160.372 170.982,159.333 169.639,157.484L144.432,122.767L144.432,153.372C144.432,157.238 141.298,160.372 137.432,160.372C133.566,160.372 130.432,157.238 130.432,153.372L130.432,101.212C130.432,98.179 132.385,95.491 135.27,94.554C138.156,93.618 141.315,94.644 143.097,97.099L168.304,131.816L168.304,99.675C168.304,95.809 171.438,92.675 175.304,92.675C179.17,92.675 182.304,95.809 182.304,99.675L182.304,153.371ZM233.311,159.269L198.666,159.269C194.8,159.269 191.666,156.135 191.666,152.269L191.666,98.573C191.666,94.707 194.8,91.573 198.666,91.573L232.236,91.573C236.102,91.573 239.236,94.707 239.236,98.573C239.236,102.439 236.102,105.573 232.236,105.573L205.666,105.573L205.666,118.422L227.228,118.422C231.094,118.422 234.228,121.556 234.228,125.422C234.228,129.288 231.094,132.422 227.228,132.422L205.666,132.422L205.666,145.269L233.311,145.269C237.177,145.269 240.311,148.403 240.311,152.269C240.311,156.135 237.177,159.269 233.311,159.269Z" style="fill:white;fill-rule:nonzero;"/>
    </g>
</svg>
